HIERARCHY
ROOT RootJoint
{
    OFFSET   0.000000   0.000000   0.000000
    CHANNELS 6 Xposition Yposition Zposition Xrotation Yrotation Zrotation
    JOINT lHip
    {
        OFFSET   0.100000  -0.051395   0.000000
        CHANNELS 3 Xrotation Yrotation Zrotation
        JOINT lKnee
        {
            OFFSET   0.000000  -0.410000   0.000000
            CHANNELS 3 Xrotation Yrotation Zrotation
            JOINT lAnkle
            {
                OFFSET   0.000000  -0.390000   0.000000
                CHANNELS 3 Xrotation Yrotation Zrotation
                JOINT lToeJoint
                {
                    OFFSET   0.000000  -0.050000   0.130000
                    CHANNELS 3 Xrotation Yrotation Zrotation
                    End Site
                    {
                        OFFSET   0.010000   0.002000   0.060000
                    }
                }
            }
        }
    }
    JOINT rHip
    {
        OFFSET  -0.100000  -0.051395   0.000000
        CHANNELS 3 Xrotation Yrotation Zrotation
        JOINT rKnee
        {
            OFFSET   0.000000  -0.410000   0.000000
            CHANNELS 3 Xrotation Yrotation Zrotation
            JOINT rAnkle
            {
                OFFSET   0.000000  -0.390000   0.000000
                CHANNELS 3 Xrotation Yrotation Zrotation
                JOINT rToeJoint
                {
                    OFFSET   0.000000  -0.050000   0.130000
                    CHANNELS 3 Xrotation Yrotation Zrotation
                    End Site
                    {
                        OFFSET  -0.010000   0.002000   0.060000
                    }
                }
            }
        }
    }
    JOINT pelvis_lowerback
    {
        OFFSET   0.000000   0.093605   0.000000
        CHANNELS 3 Xrotation Yrotation Zrotation
        JOINT lowerback_torso
        {
            OFFSET   0.000000   0.100000   0.000000
            CHANNELS 3 Xrotation Yrotation Zrotation
            JOINT torso_head
            {
                OFFSET   0.000000   0.282350   0.000000
                CHANNELS 3 Xrotation Yrotation Zrotation
                End Site
                {
                    OFFSET   0.000000   0.192650   0.000000
                }
            }
            JOINT lTorso_Clavicle
            {
                OFFSET   0.001000   0.157500   0.000000
                CHANNELS 3 Xrotation Yrotation Zrotation
                JOINT lShoulder
                {
                    OFFSET   0.117647   0.000000   0.000000
                    CHANNELS 3 Xrotation Yrotation Zrotation
                    JOINT lElbow
                    {
                        OFFSET   0.245000   0.000000   0.000000
                        CHANNELS 3 Xrotation Yrotation Zrotation
                        JOINT lWrist
                        {
                            OFFSET   0.240000   0.000000   0.000000
                            CHANNELS 3 Xrotation Yrotation Zrotation
                            End Site
                            {
                                OFFSET   0.116353  -0.002500   0.000000
                            }
                        }
                    }
                }
            }
            JOINT rTorso_Clavicle
            {
                OFFSET  -0.001000   0.157500   0.000000
                CHANNELS 3 Xrotation Yrotation Zrotation
                JOINT rShoulder
                {
                    OFFSET  -0.117647   0.000000   0.000000
                    CHANNELS 3 Xrotation Yrotation Zrotation
                    JOINT rElbow
                    {
                        OFFSET  -0.245000   0.000000   0.000000
                        CHANNELS 3 Xrotation Yrotation Zrotation
                        JOINT rWrist
                        {
                            OFFSET  -0.240000   0.000000   0.000000
                            CHANNELS 3 Xrotation Yrotation Zrotation
                            End Site
                            {
                                OFFSET  -0.116353  -0.002500   0.000000
                            }
                        }
                    }
                }
            }
        }
    }
}
MOTION
Frames: 15
Frame Time:   0.010000
  0.027787   0.843705   0.812821   0.712374 -34.295648   3.191087 -15.461713   9.481160   0.597386  31.877765  -1.184589   5.185002   0.232056  -0.261419  -3.613317   0.350953   0.085969  -0.145572 -16.591282 -10.160713  -0.657228  27.942653  -1.146645  -6.373910  -0.051699  -1.832107   2.131876  -0.271096  -0.109606   0.432358   1.601593  -0.131329   0.064741   6.292775  -1.247114   0.001209  12.915338  -7.660296   2.142722  -0.064901  -1.673821 -15.536619  16.239420 -27.006725 -46.899163   0.391121 -32.868461   7.069165   5.400498   1.548200  -2.686120  -1.411452   0.148579  17.620145  20.505850  26.428103  46.148956  -1.132005  29.531523  -3.972208   7.089465   3.849048  -1.231203
 -0.227037   0.862373   1.563734 178.036260  26.379651 -178.801613 -17.093060  10.288919   1.444830  31.324472   2.392624   5.977624  -1.829298   1.297602  -2.153682   0.432676   0.099144   0.148121 -13.334467 -10.787433  -0.607378  24.295894  -0.762053  -5.635613  -0.379343  -1.335810   3.554552   0.451723   0.526318   0.120519   1.659148   0.237686   0.236141   6.295330  -0.183060   1.140863  13.075183   0.294037  -0.718097  -0.083035  -0.939938 -16.520412  17.038770 -27.507322 -46.957602  -0.001606 -31.416841   6.179107   3.613063   1.844188  -3.310206  -1.689599   0.348023  17.391878  20.480660  25.921832  46.375616  -0.896798  29.150184  -3.603549   8.202598   3.039407  -1.383947
 -0.776903   0.828459   3.393097 177.349085  35.997165 -178.220283 -17.266102   8.591014  -1.122821  39.624637  -1.885166   6.694179  -1.077359  -1.583337   1.536869  -0.331371   0.650194  -0.060800 -15.981200 -10.496188  -0.503958  30.117307  -0.838558  -6.320119   1.855723  -1.362565   2.412405  -0.140594   0.044974  -0.118612   1.656415  -0.734351   0.408909   8.024130  -0.120926   0.870133   9.060820   6.715301  -4.246793   0.040177  -0.754355 -16.589958  14.524569 -27.664856 -46.322851  -0.271523 -34.044052   5.279468   4.527948   2.263806  -3.452049  -1.046778   0.941762  18.225864  20.270483  25.283832  46.730480  -0.850925  28.244364  -4.164642   4.675337   2.881621  -4.073409
 -0.066835   0.824807   1.124292   0.742399  31.768737  -0.303375 -16.342120   8.656845   0.047252  35.473337  -0.700213   5.102839  -1.287790  -0.780720  -2.988020  -0.129412  -0.052017  -0.126797 -16.654543  -9.297427  -0.978315  27.618692   0.129710  -5.518832   0.027509  -0.638858   2.844790   0.124228  -0.188435   0.625185   1.831161   0.000307  -0.104758   6.706321  -0.913756  -0.799597  11.991994  -4.592204   0.555394  -0.035569  -0.934015 -16.027739  15.764808 -27.606781 -46.623695   0.731547 -34.170410   6.506623   5.511736   2.159739  -3.373234  -1.069491   0.729236  17.115226  20.592580  26.392607  44.883803  -1.886411  30.215787  -3.715304   8.944509   3.271256  -2.348101
  0.347593   0.833026   0.209899   0.028496 -24.936954   1.885130 -17.227819  10.309333   3.232705  34.526516  -0.481468   4.777880   0.336428  -1.259090  -4.959544   0.612627  -0.002686   0.683265 -15.954254  -9.915746  -1.090172  29.327405   0.026134  -5.617530  -0.925819  -0.019018   3.677389   0.569323  -0.378272   0.208871   1.741076  -0.477488   0.286075   6.636347  -0.202685   0.299587  12.750224  -3.293814   0.500130  -0.218641  -1.549479 -14.864884  17.316022 -25.268789 -47.447790   0.644499 -32.730441   6.635334   6.239498   1.434919  -2.205661  -1.161922   0.446263  16.426779  20.376267  25.552981  44.223618  -1.160416  29.942279  -3.692626   8.756793   3.175986  -0.602678
 -1.063099   0.842350   2.976477  -2.161113  28.508950  -2.309021 -16.564954  11.623312  -1.458653  29.965525   2.852907   5.373450  -2.127058   1.913319   0.305628   0.083602  -0.170768  -0.102545 -10.612700 -12.769671   1.054063  25.327509   0.110452  -5.634687  -0.251884  -0.857086   4.091447   0.232366   0.105925  -0.557613   1.530221  -0.945472  -1.159622   6.551076   0.010049   0.555807  12.078734   4.325642  -4.036576  -0.167269  -0.826547 -16.710211  18.349010 -27.250502 -46.816465   1.403767 -29.779819   7.034089   6.369408   3.067138  -4.323042  -0.913529   1.571086  18.814145  19.019990  26.722946  46.296601  -0.981342  28.370307  -3.941170   7.222055   2.668633  -3.300016
 -0.253236   0.839761   0.207710   0.631962 -40.056725   1.638004 -19.275647   7.691679   2.276033  33.544535  -0.734119   5.738317  -1.156937  -0.594819  -3.650676   0.889587  -0.253590   0.089951 -12.035150 -10.427226  -2.617373  27.931267   0.055763  -5.955761  -0.721451  -2.354352   5.892900  -0.146431   0.311360   0.000562   1.822265   0.005519   0.094473   7.078366   1.755474  -0.244277  14.378478  -4.697426   1.428846   0.367116  -0.624146 -15.503340  18.790250 -25.694866 -46.354946   1.396543 -29.136736   6.217249   3.688158   1.728641  -2.502913  -1.054504   2.420766  16.497081  20.704569  25.771471  42.751351  -0.992863  30.273580  -4.061460   9.801569   3.111903  -1.377868
  0.049021   0.831379   0.625896   1.017442  30.650986  -0.974756 -16.846110   8.465230   0.779839  36.606775  -1.128724   5.796472  -0.598745  -1.183111  -3.015508  -0.031053   0.340520   0.839246 -16.689561 -10.737905  -2.234370  29.869306  -1.180671  -6.610943   0.227211  -1.206006   3.823168  -0.103452  -0.135450   0.650476   1.968626  -0.464249   0.424175   6.606089  -1.802644   1.340181  12.273956  -3.478196   0.517899   0.289932  -1.092676 -14.210736  14.494216 -26.039906 -46.365228   0.317972 -35.181628   6.205720   6.696656   0.578925  -1.570899  -1.141895   0.319881  16.879801  20.816247  23.079871  45.251664  -0.467091  29.857413  -4.054921   8.652064   3.542394  -1.628263
 -0.814924   0.832214   3.180928 -178.699774 -15.249942 -177.731339 -18.489600   9.761448  -1.640934  33.181378  -0.136910   6.363105  -1.691640  -0.380598  -0.977951   0.489377   0.097863  -0.567763 -11.870780 -11.089660  -0.150558  29.428110   1.073745  -5.448283   0.632872  -0.919572   3.443609   1.350089   0.142273  -0.412138   1.554726  -0.088600  -0.483569   7.570802   1.498697  -0.818173   7.508105   0.625744  -1.721840   0.029125  -0.771512 -16.614699  16.053027 -26.691121 -46.412635   1.435348 -32.252625   5.562384   5.807110   3.476433  -5.708422  -1.281845   1.442657  18.264405  18.535856  24.637440  45.423330  -1.729618  28.428673  -4.078229   5.895008   3.073432  -3.597584
  0.107039   0.836710   0.544644   0.298059 -36.667901   1.087141 -18.805519   8.171488   1.754121  33.291184   0.968344   5.670464  -0.408213   0.273239  -4.190654   0.241662   0.503205  -0.381168 -14.043561 -11.898234  -2.832674  28.101565  -0.021362  -6.039350  -2.645320  -1.027611   5.274476  -0.396724   0.739755   0.597798   2.319630  -0.031420   0.340843   7.787086   0.684651   0.689524  12.696417   2.940780  -3.030924   0.608143   0.505173 -16.052343  17.920712 -26.071097 -46.116913   0.577465 -30.898281   5.571240   5.019973   2.763599  -3.699408  -1.621788   1.447544  17.050172  20.406351  25.990050  44.249701  -1.460397  29.529909  -3.413895   9.571507   3.257261  -1.575391
 -0.004722   0.867066   0.824605  -0.542457 -53.340512   0.758814 -19.368084   8.387187   1.366395  32.553319   2.612383   6.010746  -2.258329   0.858724  -2.693382   0.166862   0.105662   0.264257 -13.253100 -10.696417  -1.037117  26.467104  -0.208533  -4.979065  -1.535867  -0.780274   4.057834   0.539611   0.282643   0.129669   1.686996  -0.041142  -0.213701   6.570494   0.348629   0.479065  12.576567  -0.325953  -1.679970   0.201042  -0.288330 -16.255164  17.085721 -26.356560 -47.632315   1.134912 -29.501704   6.305860   3.440319   2.026980  -3.158598  -1.269233   1.512257  17.791221  19.522661  27.094632  45.248333  -0.847760  30.387340  -4.407531   8.875999   3.111129  -1.567228
 -0.140371   0.816576   1.198691   1.468660 -41.141600   2.499397 -17.400942   9.838361   0.914335  32.824911  -0.098662   6.082266  -2.742167   0.486487  -3.212101  -0.171185  -0.064425  -0.432009 -15.558331 -10.801214  -0.884015  27.227715  -0.117990  -5.845847  -1.038283  -0.503598   3.463394   0.190523   0.429526   0.193019   1.889526  -0.075385   0.140251   6.543263  -0.463829   0.029543  11.095685  -4.911126   0.907371   0.419598  -1.324259 -15.445469  16.886273 -27.516798 -47.139145   0.624381 -32.735310   6.159904   5.693086   2.248511  -3.386864  -1.346502   0.091431  17.515086  20.426760  26.565027  46.209272  -1.085187  30.471504  -4.063936   8.034280   3.163163  -1.642015
 -0.299787   0.847086   1.522192   0.392518 -52.470518   0.032118 -21.653955   6.990836   0.228010  31.094494  -0.014553   6.183543  -0.393141  -0.136577  -1.945646   0.088310  -0.038715   0.588454  -7.594936 -11.423947  -1.084128  23.678650   1.490409  -4.518464  -1.631273   0.120824   5.280966  -0.312050   0.065982  -0.262643   1.130968   1.078163   0.190746   6.939239   2.081903   1.773665  12.621629   5.877633  -2.098966   0.340827   0.090788 -16.357553  18.515191 -24.471527 -46.305849   0.505209 -23.939398   3.827319   2.968414   2.745929  -4.184978  -1.936776   1.824208  17.941783  18.024919  25.515318  42.753418  -1.274950  28.864458  -4.615879   8.933939   2.637345  -2.130286
 -0.192284   0.853380   1.399002  -1.976952 -49.303738  -2.309068 -16.843693  11.500912   0.056757  32.328509   1.012450   5.380214  -1.812464   1.423841  -2.388945   0.151699   0.654569   0.125346 -14.239526 -11.649709  -0.596982  26.468020   0.562666  -5.804522   0.196973   0.056504   3.357597   0.000120   0.884705  -0.082748   1.789429  -0.924810   0.448290   6.816231  -1.184953   0.530328  12.229610  -2.395057  -0.747942   0.625736  -2.078748 -16.112932  17.726742 -27.456138 -46.280388   0.649179 -34.218396   6.013443   6.834860   1.861882  -3.778436  -0.833704   0.484697  17.572671  19.841168  26.250397  46.768338  -0.932162  29.882311  -3.922039   7.488715   3.137094  -2.902552
  0.320686   0.852006   0.595844   6.461014  71.976636  -4.852627 -16.887863   9.166670   0.637730  38.911460  -1.519357   5.722943  -1.447813  -1.212157  -3.009433   0.439937   0.127947  -1.013566 -19.297275 -11.087825  -1.121072  30.273003  -3.067617  -6.319355   0.254599  -2.088163   0.865206  -0.167634   0.697174   0.181022   2.163825   0.122266   0.421331   7.405252  -1.071262   0.283468  11.397171  -3.619501  -0.362574   0.309094  -0.633649 -15.402931  14.482430 -27.880891 -47.784185   0.717176 -36.944442   7.473476   5.013983   1.255204  -0.731021  -1.665243  -0.668625  16.948272  22.907508  26.102162  47.632826  -0.894535  31.210342  -4.397461   7.072089   4.219358  -0.436058
